<?xml version="1.0" standalone="no"?>
<!DOCTYPE svg PUBLIC "-//W3C//DTD SVG 20010904//EN"
 "http://www.w3.org/TR/2001/REC-SVG-20010904/DTD/svg10.dtd">
<svg version="1.0" xmlns="http://www.w3.org/2000/svg"
 width="808.000000pt" height="215.000000pt" viewBox="0 0 808.000000 215.000000"
 preserveAspectRatio="xMidYMid meet">

<g transform="translate(0.000000,215.000000) scale(0.100000,-0.100000)"
fill="#000000" stroke="none">
<path d="M0 1075 l0 -1075 4040 0 4040 0 0 1075 0 1075 -4040 0 -4040 0 0
-1075z m2180 575 c94 -15 102 -19 98 -43 -3 -19 -8 -22 -48 -19 -25 1 -126 3
-225 4 -166 2 -188 0 -281 -24 -225 -60 -376 -136 -539 -274 -289 -243 -460
-570 -498 -955 -12 -122 -12 -124 -37 -124 l-25 0 2 95 c5 276 129 599 322
833 230 281 528 452 891 510 53 9 278 6 340 -3z m375 -110 c48 -23 65 -36 65
-51 0 -33 -27 -33 -108 1 -90 39 -107 52 -98 76 9 23 57 14 141 -26z m198
-112 c49 -26 176 -130 243 -199 214 -224 351 -499 399 -806 9 -54 15 -124 13
-154 -3 -47 -6 -54 -25 -57 -26 -4 -29 5 -38 121 -21 251 -128 520 -291 734
-68 88 -220 235 -296 286 -64 42 -72 52 -64 72 7 18 30 19 59 3z m-555 -104
c331 -68 614 -281 770 -581 56 -108 108 -268 122 -378 16 -117 12 -149 -17
-153 -30 -4 -38 18 -52 136 -47 388 -316 728 -686 867 -208 79 -484 74 -686
-10 -96 -40 -206 -109 -283 -176 -69 -61 -107 -73 -114 -38 -4 24 40 72 131
140 131 98 308 174 467 202 65 11 276 6 348 -9z m2330 -139 c20 -9 47 -26 59
-37 21 -20 22 -23 7 -39 -16 -17 -18 -17 -51 8 -26 20 -50 28 -94 31 -54 4
-60 2 -89 -26 -36 -37 -38 -61 -6 -100 18 -21 41 -32 83 -41 132 -30 174 -65
175 -147 2 -80 -58 -135 -151 -142 -48 -3 -70 0 -114 21 -65 30 -90 63 -61 84
15 11 21 10 43 -11 40 -36 65 -46 121 -46 44 0 56 5 81 29 55 56 25 129 -62
150 -104 26 -125 35 -156 66 -27 27 -33 40 -33 77 1 55 18 85 66 114 47 29
125 32 182 9z m545 -187 c31 -112 64 -224 72 -250 l14 -48 -29 0 c-27 0 -31 4
-46 58 -24 82 -25 83 -118 80 l-81 -3 -21 -65 c-18 -57 -24 -65 -47 -68 -15
-2 -27 0 -27 3 0 5 109 389 136 478 4 13 16 17 47 17 l42 0 58 -202z m515 181
c33 -16 49 -32 63 -63 10 -23 19 -47 19 -53 0 -20 -50 -16 -56 5 -13 40 -28
60 -51 71 -100 46 -184 -60 -170 -215 10 -109 45 -169 104 -180 67 -13 106 27
115 118 l5 47 -41 3 c-29 2 -42 8 -44 21 -3 15 5 17 67 17 l71 0 0 -59 c0 -32
-5 -73 -11 -92 -36 -106 -160 -141 -243 -69 -53 47 -79 119 -80 221 0 77 3 93
29 145 23 45 40 63 74 81 55 29 92 29 149 2z m513 10 c59 -18 92 -59 96 -121
5 -66 -20 -110 -71 -129 -20 -7 -36 -17 -36 -23 0 -5 25 -54 55 -108 30 -54
55 -100 55 -103 0 -3 -13 -5 -29 -5 -27 0 -34 9 -87 108 l-59 107 -42 3 -43 3
0 -110 0 -111 -30 0 -30 0 0 250 0 250 91 0 c51 0 109 -5 130 -11z m575 -237
l71 -247 -25 -3 c-30 -4 -35 4 -52 74 -15 63 -22 66 -124 62 l-69 -3 -22 -65
c-19 -56 -25 -65 -48 -68 -15 -2 -27 -1 -27 2 0 3 25 93 55 198 31 106 62 217
71 246 l15 52 42 0 42 0 71 -248z m484 226 c36 -18 51 -35 74 -81 26 -50 30
-70 30 -140 0 -91 -14 -145 -52 -196 -35 -47 -76 -61 -182 -61 l-90 0 0 250 0
250 88 0 c71 0 96 -4 132 -22z m527 1 c54 -26 88 -82 101 -164 27 -172 -49
-325 -161 -325 -114 0 -184 114 -175 284 10 175 112 264 235 205z m-5547 -193
c154 -33 263 -90 376 -198 125 -119 170 -218 102 -226 -22 -3 -34 8 -83 72
-99 131 -248 229 -400 261 -365 77 -728 -201 -771 -590 -7 -69 -26 -105 -54
-105 -57 0 -50 151 16 316 133 335 487 540 814 470z m-953 -122 c6 -16 3 -23
-67 -154 -55 -102 -98 -240 -111 -357 -15 -142 -16 -143 -44 -143 -34 0 -40
30 -26 144 19 164 80 337 164 469 38 58 71 75 84 41z m4343 -254 c13 -13 20
-33 20 -59 0 -63 -55 -108 -175 -141 -34 -10 -60 -23 -60 -30 0 -22 47 -49
115 -66 157 -40 368 15 580 151 38 25 95 58 126 75 53 28 59 29 80 15 13 -8
34 -15 47 -15 34 0 49 -22 62 -88 11 -56 12 -57 56 -66 60 -12 176 7 252 41
33 15 88 48 123 74 65 48 90 53 115 23 6 -8 9 -28 7 -45 -6 -39 12 -47 49 -22
67 45 131 56 171 27 12 -8 40 -39 62 -69 45 -61 105 -95 168 -95 80 0 203 60
305 148 54 47 59 49 77 27 18 -22 1 -49 -63 -103 -112 -94 -253 -150 -348
-139 -70 9 -121 39 -185 112 -32 36 -64 65 -71 65 -29 0 -81 -36 -155 -107
-58 -57 -82 -74 -100 -71 -22 3 -23 6 -20 80 l4 78 -69 -31 c-112 -50 -204
-70 -313 -67 -86 2 -98 0 -119 -19 -39 -37 -77 -47 -120 -34 -53 15 -87 45
-101 86 -6 19 -16 35 -21 35 -5 0 -41 -16 -79 -35 -204 -103 -384 -136 -538
-100 -81 19 -133 46 -167 86 l-27 33 -58 -32 c-207 -114 -368 -96 -470 53 -24
35 -37 45 -59 45 -34 0 -93 -42 -174 -122 -33 -32 -67 -57 -76 -56 -25 5 -25
52 -1 157 27 117 35 133 63 129 20 -3 22 -9 21 -55 -1 -29 2 -53 7 -53 4 0 29
14 55 32 34 23 62 33 101 36 52 4 55 3 86 -33 86 -100 113 -123 157 -135 102
-27 240 35 384 173 50 48 109 96 131 107 53 26 119 26 145 0z m-2812 -132 c20
-43 43 -167 40 -216 -5 -77 -65 -86 -80 -11 -4 19 -15 77 -26 129 -23 108 -17
133 26 128 18 -2 31 -12 40 -30z"/>
<path d="M4960 1147 c0 -3 -13 -58 -30 -123 -16 -66 -30 -125 -30 -131 0 -9
22 -13 75 -13 73 0 75 1 70 23 -46 188 -62 241 -72 245 -7 2 -13 2 -13 -1z"/>
<path d="M5940 1055 l0 -105 60 0 c66 0 113 18 130 49 13 26 13 87 -1 113 -15
28 -70 48 -134 48 l-55 0 0 -105z"/>
<path d="M6550 1146 c0 -3 -13 -59 -30 -124 -16 -66 -30 -125 -30 -131 0 -7
28 -11 76 -11 57 0 75 3 72 13 -3 6 -18 67 -34 135 -18 77 -33 122 -41 122 -7
0 -13 -2 -13 -4z"/>
<path d="M7008 1154 c-5 -4 -8 -99 -8 -211 l0 -203 50 0 c28 0 65 7 81 16 63
32 97 178 66 285 -22 75 -59 109 -128 116 -30 3 -57 2 -61 -3z"/>
<path d="M7560 1122 c-36 -36 -50 -88 -50 -182 1 -111 31 -179 89 -202 100
-38 168 144 121 323 -23 85 -104 116 -160 61z"/>
<path d="M5413 539 c-58 -37 -32 -49 35 -17 23 12 30 38 10 38 -7 0 -28 -10
-45 -21z"/>
<path d="M6147 412 c-21 -23 -22 -46 -1 -66 38 -39 68 -4 35 42 -11 16 -18 32
-14 36 3 3 4 6 1 6 -3 0 -12 -8 -21 -18z"/>
</g>
</svg>
